<?xml version="1.0" encoding="iso-8859-1"?>
<!-- Uploaded to: SVG Repo, www.svgrepo.com, Generator: SVG Repo Mixer Tools -->
<svg version="1.1" id="Layer_1" xmlns="http://www.w3.org/2000/svg" xmlns:xlink="http://www.w3.org/1999/xlink" 
	 viewBox="0 0 512.002 512.002" xml:space="preserve">
<path style="fill:#FF932A;" d="M480.213,384.544L445.447,70.518h-137.3v107.475h49.007c20.449,0,37.026,16.577,37.026,37.026v25.024
	c0,20.449-16.577,37.026-37.026,37.026h-49.007v107.475h-24.184v73.384h220.436v-73.384L480.213,384.544L480.213,384.544z"/>
<polygon style="fill:#FFFFFF;" points="424.571,227.41 411.41,108.531 338.557,108.531 338.557,93.325 425.025,93.325 
	439.684,225.737 "/>
<path style="fill:#FF932A;" d="M203.853,384.544V277.069h-49.007c-20.449,0-37.026-16.577-37.026-37.026v-25.024
	c0-20.449,16.577-37.026,37.026-37.026h49.007V70.518h-137.3L31.787,384.544H7.603v73.384h220.436v-73.384H203.853z"/>
<g>
	<rect x="7.603" y="384.54" style="fill:#37B3CC;" width="220.436" height="73.381"/>
	<rect x="283.964" y="384.54" style="fill:#37B3CC;" width="220.436" height="73.381"/>
</g>
<g>
	<rect x="96.969" y="22.33" style="fill:#F64B65;" width="76.462" height="48.184"/>
	<rect x="338.561" y="22.33" style="fill:#F64B65;" width="76.462" height="48.184"/>
</g>
<path style="fill:#37B3CC;" d="M117.821,215.018c0-20.449,16.577-37.026,37.026-37.026h202.307
	c20.449,0,37.026,16.577,37.026,37.026v25.024c0,20.449-16.577,37.026-37.026,37.026H154.846c-20.449,0-37.026-16.577-37.026-37.026
	C117.821,240.042,117.821,215.018,117.821,215.018z"/>
<g>
	<circle style="fill:#F64B65;" cx="167.359" cy="227.53" r="16.659"/>
	<circle style="fill:#F64B65;" cx="344.643" cy="227.53" r="16.659"/>
</g>
<g>
	<path style="fill:#002770;" d="M487.02,376.941L452.253,62.915h-29.623V14.73h-91.669v48.184h-30.419v107.474h-89.088V62.915
		h-30.419V14.73H89.369v48.184H59.746L24.98,376.941H0v88.589h235.641v-88.589h-24.184v-92.27h89.088v92.269H276.36v88.589h235.641
		V376.94H487.02V376.941z M346.167,29.936h61.258v32.979h-61.258V29.936z M104.575,29.936h61.258v32.979h-61.258
		C104.575,62.915,104.575,29.936,104.575,29.936z M196.251,376.941h-33.51v15.205h33.51h24.184v58.178H15.205v-58.178h23.39h103.872
		v-15.205H40.278L73.36,78.12h16.008h91.669h15.213v92.269h-41.404c-24.608,0-44.628,20.02-44.628,44.628v25.025
		c0,24.608,20.02,44.628,44.628,44.628h41.404v92.271H196.251z M211.457,269.466L211.457,269.466h-56.609
		c-16.224,0-29.423-13.199-29.423-29.423v-25.025c0-16.224,13.199-29.423,29.423-29.423h56.609h89.088h56.609
		c16.224,0,29.423,13.199,29.423,29.423v25.025c0,16.224-13.199,29.423-29.423,29.423h-56.609l0,0H211.457z M496.795,450.325
		H291.564v-58.178h24.184h33.51v-15.205h-33.51v-92.27h41.404c24.608,0,44.628-20.02,44.628-44.628v-25.025
		c0-24.608-20.02-44.628-44.628-44.628h-41.404V78.12h15.213h91.669h16.008l33.083,298.82h-102.19v15.205h103.872h23.39
		L496.795,450.325L496.795,450.325z"/>
	<rect y="482.066" style="fill:#002770;" width="235.641" height="15.205"/>
	<rect x="276.361" y="482.066" style="fill:#002770;" width="235.641" height="15.205"/>
	<path style="fill:#002770;" d="M167.358,203.27c-13.378,0-24.262,10.883-24.262,24.262c0,13.379,10.883,24.262,24.262,24.262
		s24.262-10.883,24.262-24.262C191.62,214.153,180.736,203.27,167.358,203.27z M167.358,236.586c-4.993,0-9.056-4.063-9.056-9.056
		s4.063-9.056,9.056-9.056c4.993,0,9.056,4.063,9.056,9.056S172.352,236.586,167.358,236.586z"/>
	<path style="fill:#002770;" d="M344.642,251.792c13.378,0,24.262-10.883,24.262-24.262c0-13.379-10.883-24.262-24.262-24.262
		c-13.379,0-24.262,10.883-24.262,24.262C320.38,240.909,331.264,251.792,344.642,251.792z M344.642,218.475
		c4.993,0,9.056,4.063,9.056,9.056s-4.063,9.056-9.056,9.056c-4.993,0-9.056-4.063-9.056-9.056S339.647,218.475,344.642,218.475z"/>
</g>
<polygon style="fill:#FFFFFF;" points="87.43,227.41 72.317,225.737 86.977,93.325 173.446,93.325 173.446,108.531 100.592,108.531 
	"/>
</svg>